<?xml version="1.0" standalone="no"?>
<!DOCTYPE svg PUBLIC "-//W3C//DTD SVG 20010904//EN"
 "http://www.w3.org/TR/2001/REC-SVG-20010904/DTD/svg10.dtd">
<svg version="1.0" xmlns="http://www.w3.org/2000/svg"
 width="160.000000pt" height="160.000000pt" viewBox="0 0 160.000000 160.000000"
 preserveAspectRatio="xMidYMid meet">

<g transform="translate(0.000000,160.000000) scale(0.100000,-0.100000)"
fill="#000000" stroke="none">
<path d="M410 1283 l0 -81 43 -10 c88 -23 163 -101 174 -180 l6 -42 84 0 85 0
-7 43 c-18 106 -55 177 -129 245 -57 53 -136 91 -205 99 l-51 6 0 -80z"/>
<path d="M800 1281 l0 -79 38 -7 c90 -16 175 -101 189 -187 l6 -38 80 0 80 0
-6 54 c-14 141 -119 267 -264 317 -31 10 -71 19 -90 19 l-33 0 0 -79z"/>
<path d="M410 880 c0 -76 1 -80 23 -80 33 -1 98 -33 131 -66 35 -35 65 -99 66
-136 l0 -28 86 0 85 0 -7 48 c-22 152 -120 274 -259 323 -30 10 -70 19 -90 19
l-35 0 0 -80z"/>
<path d="M800 883 l0 -81 44 -6 c83 -13 157 -85 179 -176 l12 -50 79 0 79 0
-6 55 c-17 163 -170 318 -328 332 l-59 6 0 -80z"/>
<path d="M410 436 c0 -82 1 -86 23 -87 39 -2 52 2 70 23 23 27 22 34 -8 64
-18 18 -31 23 -49 18 -22 -5 -24 -3 -22 26 1 17 -1 33 -6 36 -4 3 -8 -33 -8
-80z m75 -36 c0 -18 -6 -26 -23 -28 -13 -2 -25 3 -28 12 -10 26 4 48 28 44 17
-2 23 -10 23 -28z"/>
<path d="M970 435 c0 -77 2 -85 19 -85 11 0 26 -3 35 -6 10 -4 16 -1 16 9 0 9
-10 17 -22 19 -17 2 -23 10 -23 28 0 18 6 26 23 28 12 2 22 10 22 19 0 11 -6
14 -25 9 -23 -6 -25 -4 -25 29 0 19 -4 35 -10 35 -6 0 -10 -35 -10 -85z"/>
<path d="M1080 440 c0 -27 5 -50 10 -50 6 0 10 23 10 50 0 28 -4 50 -10 50 -5
0 -10 -22 -10 -50z"/>
<path d="M1140 439 c0 -56 13 -89 35 -89 19 0 19 8 0 26 -8 9 -15 24 -15 35 0
10 7 19 15 19 8 0 15 4 15 9 0 5 -7 11 -15 15 -8 3 -15 12 -15 21 0 8 -4 15
-10 15 -5 0 -10 -23 -10 -51z"/>
<path d="M565 435 c-31 -30 -31 -40 -2 -69 18 -17 31 -22 55 -18 30 4 32 7 32
43 0 28 -6 42 -22 53 -30 21 -35 20 -63 -9z m60 -35 c0 -18 -6 -26 -23 -28
-13 -2 -25 3 -28 12 -10 26 4 48 28 44 17 -2 23 -10 23 -28z"/>
<path d="M713 448 c-19 -9 -23 -19 -23 -55 0 -23 5 -43 10 -43 6 0 10 16 10
35 0 24 6 37 19 45 26 13 51 -11 51 -51 0 -16 5 -29 10 -29 14 0 12 63 -2 82
-18 22 -49 28 -75 16z"/>
<path d="M855 448 c-57 -32 -40 -102 24 -100 28 1 32 -2 29 -21 -4 -29 -45
-35 -63 -10 -17 24 -30 11 -15 -16 12 -24 68 -29 88 -9 7 7 12 39 12 74 0 54
-3 65 -22 78 -26 19 -27 19 -53 4z m50 -48 c0 -30 -35 -40 -55 -15 -10 12 -10
18 0 30 20 25 55 15 55 -15z"/>
<path d="M1080 360 c0 -5 5 -10 10 -10 6 0 10 5 10 10 0 6 -4 10 -10 10 -5 0
-10 -4 -10 -10z"/>
</g>
</svg>
